<svg xmlns="http://www.w3.org/2000/svg" xmlns:xlink="http://www.w3.org/1999/xlink" width="300" height="300" viewBox="0 0 300 300">
  <defs>
    <clipPath id="clip-path">
      <circle id="Ellipse_7" data-name="Ellipse 7" cx="150" cy="150" r="150" transform="translate(922 553)" fill="#651515" stroke="#707070" stroke-width="1"/>
    </clipPath>
  </defs>
  <g id="Mask_Group_3" data-name="Mask Group 3" transform="translate(-922 -553)" clip-path="url(#clip-path)">
    <g id="empty-box" transform="translate(922 553)">
      <path id="Path_12" data-name="Path 12" d="M244.141,188.281H55.859a8.789,8.789,0,0,0-8.789,8.789v94.141A8.789,8.789,0,0,0,55.859,300H244.14a8.789,8.789,0,0,0,8.789-8.789V197.07A8.788,8.788,0,0,0,244.141,188.281Z" fill="#ffe660"/>
      <path id="Path_13" data-name="Path 13" d="M252.93,291.211V197.07a8.789,8.789,0,0,0-8.789-8.789H150V300h94.141A8.789,8.789,0,0,0,252.93,291.211Z" fill="#ffc54d"/>
      <path id="Path_14" data-name="Path 14" d="M150,149.375a8.789,8.789,0,0,1-8.789-8.784c0-.25-.1-25.29-6.829-49.755-8.21-29.869-21.959-45.015-40.866-45.015-16.894,0-24.456,10.056-24.456,20.022,0,13.629,13.545,28.3,43.284,28.3a8.789,8.789,0,1,1,0,17.578c-38.327,0-60.862-21.314-60.862-45.876,0-18.685,14.438-37.6,42.034-37.6,19.167,0,44.772,10.107,57.9,58.254,7.287,26.717,7.371,52.985,7.371,54.09A8.789,8.789,0,0,1,150,149.375Z" fill="#3f5b77"/>
      <path id="Path_15" data-name="Path 15" d="M178.242,111.719a8.789,8.789,0,1,1,0-17.578c42.037,0,57.33-21.625,57.33-37.556,0-16.119-13.974-29.592-38.5-29.592a8.789,8.789,0,0,1,0-17.578c40.008,0,56.08,26.6,56.08,47.17,0,29.391-27.451,55.134-74.909,55.134Z" fill="#0584aa"/>
      <path id="Path_16" data-name="Path 16" d="M159.414,26.992a8.786,8.786,0,0,1-6.214-2.575L143.785,15A8.789,8.789,0,1,1,156.215,2.574l3.2,3.2,3.2-3.2A8.789,8.789,0,0,1,175.042,15l-9.414,9.414a8.785,8.785,0,0,1-6.214,2.575Z" fill="#d90d2c"/>
      <path id="Path_17" data-name="Path 17" d="M299.331,146.637a8.789,8.789,0,0,0-8.12-5.426H197.07a8.789,8.789,0,0,0-6.214,2.575L150,184.641l-40.856-40.856a8.789,8.789,0,0,0-6.214-2.575H8.79a8.789,8.789,0,0,0-6.214,15l44.5,44.5H252.93l44.5-44.5a8.789,8.789,0,0,0,1.905-9.578Z" fill="#ffc54d"/>
      <path id="Path_18" data-name="Path 18" d="M297.425,156.214a8.789,8.789,0,0,0-6.214-15H197.07a8.789,8.789,0,0,0-6.214,2.575L150,184.641V200.71H252.93Z" fill="#f98e00"/>
    </g>
  </g>
</svg>
