<svg height="512" viewBox="0 0 50 58" width="512" xmlns="http://www.w3.org/2000/svg"><g id="Page-1" fill="none" fill-rule="evenodd"><g id="017---Search-Click" transform="translate(-1)"><path id="Path" d="m37.79 28.52 11.97 8.91c.6587059.4906653 1.093815 1.2243948 1.208396 2.0377317.1145809.813337-.1008845 1.6387179-.598396 2.2922683-1.0385526 1.3728317-2.9905738 1.6497775-4.37.62l-11.93-8.88z" fill="#e64c3c"/><path id="Path" d="m40 19.5c.0045329 6.2270265-2.9688123 12.0807998-8 15.75l-.09.03c-.1292446-.5305677-.4026474-1.0150789-.79-1.4-.8368335-.8400187-2.0906609-1.1068283-3.1970083-.6803108-1.1063473.4265175-1.8565992 1.4659369-1.9129917 2.6503108-.0083021.0495443-.011652.0997921-.01.15v-2c.0003257-1.2664242-.796704-2.3958834-1.99-2.82-.3226278-.1219816-.6650955-.1830155-1.01-.18-.7955351-.0000702-1.5583676.3165773-2.12.88-.5284732.5231683-.8393031 1.2270015-.87 1.97-.0083021.0495443-.011652.0997921-.01.15v-1c.0003257-1.2664242-.796704-2.3958834-1.99-2.82-.3226278-.1219816-.6650955-.1830155-1.01-.18-.7955351-.0000702-1.5583676.3165773-2.12.88-.5284732.5231683-.8393031 1.2270015-.87 1.97-.0083021.0495443-.011652.0997921-.01.15v-8.83c.0054837-1.3083283-.780974-2.4899909-1.99-2.99-.2713891-.1067277-.5586444-.1675583-.85-.18-.822991-.0439562-1.62782021.2526007-2.22552752.8200443-.5977073.5674437-.9356455 1.3557925-.93447248 2.1799557l-.01 7.94v2.52c-6.93522481-5.8001127-8.97414106-15.6066005-4.92559139-23.6904051 4.04854968-8.08380456 13.12267539-12.32463305 21.92117269-10.24494668 8.7984973 2.07968636 15.0136175 9.93440878 15.0144187 18.97535178z" fill="#b0d3f0"/><path id="Path" d="m5 20.5c-.55228475 0-1-.4477153-1-1 .00343469-6.0020137 3.26425651-11.52925218 8.516-14.435.4824193-.26001488 1.0842444-.08330288 1.3495064.39625133s.0951256 1.08327115-.3815064 1.35374867c-4.61517191 2.55341517-7.48082917 7.4105587-7.484 12.685 0 .5522847-.44771525 1-1 1z" fill="#fff"/><path id="Path" d="m17 5.41c-.5061418-.00099852-.9317295-.38001369-.9911192-.8826601-.0593898-.50264641.2661474-.9704101.7581192-1.0893399 1.2226956-.29276308 2.4757444-.43978568 3.733-.438.5522847 0 1 .44771525 1 1s-.4477153 1-1 1c-1.0999227-.00192591-2.1962101.12629877-3.266.382-.0766237.01852394-.155169.02792252-.234.028z" fill="#fff"/><path id="Path" d="m32 36v12c.0000479 2.6625934-1.0617528 5.2152677-2.9501135 7.0923658-1.8883607 1.8770982-4.4473411 2.9236098-7.1098865 2.9076342h-9.09c-5.46143979-.0883777-9.84416829-4.5378483-9.85-10v-6c-.00073749-1.9852603 1.17819026-3.7811602 3-4.57.05-.02.09-.04.14-.06l1.85-.74v-4.69l.01-7.94c-.00117302-.8241632.33676518-1.612512.93447248-2.1799557.59770731-.5674436 1.40253652-.8640005 2.22552752-.8200443.2913556.0124417.5786109.0732723.85.18 1.209026.5000091 1.9954837 1.6816717 1.99 2.99v8.83c-.001652-.0502079.0016979-.1004557.01-.15.0306969-.7429985.3415268-1.4468317.87-1.97.5616324-.5634227 1.3244649-.8800702 2.12-.88.3449045-.0030155.6873722.0580184 1.01.18 1.193296.4241166 1.9903257 1.5535758 1.99 2.82v1c-.001652-.0502079.0016979-.1004557.01-.15.0306969-.7429985.3415268-1.4468317.87-1.97.5616324-.5634227 1.3244649-.8800702 2.12-.88.3449045-.0030155.6873722.0580184 1.01.18 1.193296.4241166 1.9903257 1.5535758 1.99 2.82v2c-.001652-.0502079.0016979-.1004557.01-.15.0876036-1.4747076 1.2357724-2.6661369 2.7062334-2.8081984s2.8254746.8075349 3.1937666 2.2381984c.0606512.2351667.0908978.4771397.09.72z" fill="#3b97d3"/><g fill="#2980ba"><path id="Path" d="m14.01 32.85v5.15c0 .5522847-.4477153 1-1 1s-1-.4477153-1-1v-16.82c1.209026.5000091 1.9954837 1.6816717 1.99 2.99v8.83c-.001652-.0502079.0016979-.1004557.01-.15z"/><path id="Path" d="m26.01 35.85v4.15c0 .5522847-.4477153 1-1 1s-1-.4477153-1-1v-8.82c1.193296.4241166 1.9903257 1.5535758 1.99 2.82v2c-.001652-.0502079.0016979-.1004557.01-.15z"/><path id="Path" d="m20.01 33.85v5.15c0 .5522847-.4477153 1-1 1s-1-.4477153-1-1v-8.82c1.193296.4241166 1.9903257 1.5535758 1.99 2.82v1c-.001652-.0502079.0016979-.1004557.01-.15z"/><path id="Path" d="m8 46c0 .5522847-.44771525 1-1 1s-1-.4477153-1-1v-8.57c.05-.02.09-.04.14-.06l1.85-.74z"/></g></g></g></svg>